<?xml version="1.0" encoding="UTF-8"?>
<svg width="371px" height="47px" viewBox="0 0 371 47" version="1.1" xmlns="http://www.w3.org/2000/svg" xmlns:xlink="http://www.w3.org/1999/xlink">
    <!-- Generator: Sketch 61 (89581) - https://sketch.com -->
    <title>cleverstore_blk_registered</title>
    <desc>Created with Sketch.</desc>
    <g id="Software" stroke="none" stroke-width="1" fill="none" fill-rule="evenodd">
        <g id="SOFTWARE-SUB-PAGES-EDUCATION-Copy" transform="translate(-200.000000, -314.000000)" fill="#0C1224">
            <g id="cleverstore_blk_registered" transform="translate(200.000000, 314.000000)">
                <path d="M19.26,11.295 C17.59375,11.295 16.12125,11.6175 14.8375,12.26375 C13.55625,12.91 12.48,13.83625 11.61,15.04375 C10.73875,16.25 10.08,17.72 9.63,19.45125 C9.18125,21.1825 8.95625,23.125 8.95625,25.2775 C8.95625,27.4675 9.1575,29.41375 9.56,31.1175 C9.9625,32.82125 10.58,34.2575 11.4125,35.4275 C12.24625,36.59625 13.3125,37.48625 14.61375,38.095 C15.915,38.7025 17.46375,39.00625 19.26,39.00625 C20.92625,39.00625 22.59625,38.82 24.27125,38.445 C25.9475,38.07125 27.7675,37.5375 29.7325,36.845 L29.7325,44.14375 C28.83375,44.51875 27.94625,44.8375 27.065,45.09875 C26.185,45.36125 25.2875,45.57625 24.37,45.745 C23.45375,45.91375 22.5125,46.04 21.54875,46.12375 C20.585,46.20875 19.55125,46.25 18.44625,46.25 C15.28375,46.25 12.54,45.745 10.22,44.73375 C7.89875,43.72375 5.98,42.30125 4.46375,40.46625 C2.94875,38.6325 1.825,36.42375 1.095,33.84 C0.365,31.2575 0,28.385 0,25.22125 C0,22.11375 0.42125,19.265 1.26375,16.67125 C2.10625,14.08 3.34125,11.8475 4.97,9.975 C6.5975,8.10375 8.61,6.64875 11.00625,5.61 C13.4025,4.57125 16.15375,4.05125 19.26,4.05125 C21.3,4.05125 23.34625,4.30875 25.395,4.82375 C27.445,5.33875 29.405,6.045 31.2775,6.94375 L28.46875,14.01875 C26.935,13.28875 25.39125,12.6525 23.83625,12.10875 C22.2825,11.56625 20.75875,11.295 19.26,11.295" id="Fill-1"></path>
                <polyline id="Fill-4" points="36.625 45.68875 36.625 4.64125 45.32875 4.64125 45.32875 38.50125 60.265 38.50125 60.265 45.68875 36.625 45.68875"></polyline>
                <polyline id="Fill-5" points="87.59125 45.68875 63.95125 45.68875 63.95125 4.64125 87.59125 4.64125 87.59125 11.7725 72.655 11.7725 72.655 20.785 86.5525 20.785 86.5525 27.91625 72.655 27.91625 72.655 38.50125 87.59125 38.50125 87.59125 45.68875"></polyline>
                <path d="M118.07375,4.64125 L126.86125,4.64125 L114.05875,45.68875 L104.56875,45.68875 L91.795,4.64125 L100.5825,4.64125 L107.545,29.34875 C107.63875,29.66625 107.765,30.2 107.925,30.94875 C108.08375,31.6975 108.2525,32.52125 108.43,33.41875 C108.6075,34.3175 108.78,35.21625 108.94875,36.115 C109.1175,37.0125 109.24875,37.77125 109.3425,38.38875 C109.43625,37.77125 109.5675,37.0125 109.735,36.115 C109.90375,35.21625 110.0825,34.3225 110.26875,33.43375 C110.455,32.545 110.63875,31.72625 110.815,30.97625 C110.99375,30.22875 111.12875,29.685 111.22375,29.34875 L118.07375,4.64125" id="Fill-6"></path>
                <polyline id="Fill-7" points="154.98875 45.68875 131.34875 45.68875 131.34875 4.64125 154.98875 4.64125 154.98875 11.7725 140.0525 11.7725 140.0525 20.785 153.95 20.785 153.95 27.91625 140.0525 27.91625 140.0525 38.50125 154.98875 38.50125 154.98875 45.68875"></polyline>
                <path d="M301.2275,22.8625 L303.58625,22.8625 C306,22.8625 307.73125,22.38125 308.78,21.41625 C309.82875,20.4525 310.3525,19.035 310.3525,17.1625 C310.3525,15.21625 309.79125,13.83125 308.6675,13.0075 C307.545,12.185 305.80375,11.7725 303.445,11.7725 L301.2275,11.7725 L301.2275,22.8625 Z M301.2275,29.9375 L301.2275,45.68875 L292.52375,45.68875 L292.52375,4.64125 L303.755,4.64125 C309.015,4.64125 312.8975,5.65625 315.40625,7.6875 C317.915,9.71875 319.16875,12.8025 319.16875,16.93875 C319.16875,18.3425 318.98125,19.615 318.60625,20.75625 C318.2325,21.89875 317.73125,22.91375 317.10375,23.8025 C316.4775,24.6925 315.75625,25.46875 314.94375,26.13375 C314.1275,26.79875 313.2725,27.355 312.37375,27.80375 C314.45125,31.13625 316.31375,34.1125 317.96125,36.7325 C318.6725,37.855 319.36,38.95 320.02375,40.0175 C320.68875,41.08375 321.28375,42.03875 321.8075,42.88125 C322.33125,43.72375 322.7625,44.3975 323.09875,44.9025 L323.57625,45.68875 L313.9175,45.68875 L305.0175,29.9375 L301.2275,29.9375 L301.2275,29.9375 Z" id="Fill-14"></path>
                <polyline id="Fill-15" points="350.15125 45.68875 326.51125 45.68875 326.51125 4.64125 350.15125 4.64125 350.15125 11.7725 335.215 11.7725 335.215 20.785 349.1125 20.785 349.1125 27.91625 335.215 27.91625 335.215 38.50125 350.15125 38.50125 350.15125 45.68875"></polyline>
                <path d="M361.78875,7.06375 L362.0975,7.06375 C362.53625,7.06375 362.85,6.97 363.03875,6.78 C363.22875,6.59125 363.32375,6.27625 363.32375,5.83875 C363.32375,5.60625 363.29875,5.41375 363.24875,5.26 C363.19875,5.1075 363.1225,4.98625 363.02,4.89625 C362.9175,4.8075 362.7875,4.74375 362.63125,4.7075 C362.475,4.67125 362.29125,4.65375 362.07875,4.65375 L361.78875,4.65375 L361.78875,7.06375 Z M365.625,5.79875 C365.625,6.42375 365.4975,6.91875 365.24125,7.28375 C364.98625,7.64875 364.63875,7.9275 364.2,8.12 L366.5625,12.10625 L364.03125,12.10625 L362.2575,8.7375 L361.78875,8.7375 L361.78875,12.10625 L359.5075,12.10625 L359.5075,2.97875 L362.13875,2.97875 C363.34625,2.97875 364.23,3.21125 364.78875,3.67625 C365.34625,4.14125 365.625,4.84875 365.625,5.79875 Z M356.50875,7.5325 C356.50875,8.37625 356.66875,9.16625 356.98625,9.90375 C357.305,10.64125 357.73875,11.28375 358.2875,11.83125 C358.835,12.38 359.4775,12.8125 360.215,13.13125 C360.95125,13.45125 361.7425,13.61 362.58625,13.61 C363.43,13.61 364.22125,13.45125 364.9575,13.13125 C365.695,12.8125 366.3375,12.38 366.885,11.83125 C367.43375,11.28375 367.8675,10.64125 368.185,9.90375 C368.50375,9.16625 368.66375,8.37625 368.66375,7.5325 C368.66375,6.68875 368.50375,5.89875 368.185,5.16125 C367.8675,4.42375 367.43375,3.78125 366.885,3.2325 C366.3375,2.685 365.695,2.25125 364.9575,1.9325 C364.22125,1.61375 363.43,1.455 362.58625,1.455 C361.7425,1.455 360.95125,1.61375 360.215,1.9325 C359.4775,2.25125 358.835,2.685 358.2875,3.2325 C357.73875,3.78125 357.305,4.42375 356.98625,5.16125 C356.66875,5.89875 356.50875,6.68875 356.50875,7.5325 Z M355.09375,7.5325 C355.09375,6.84125 355.18375,6.1775 355.36375,5.54 C355.54125,4.9025 355.7925,4.30625 356.115,3.75125 C356.4375,3.1975 356.8275,2.69 357.28625,2.2325 C357.74375,1.77375 358.25,1.38375 358.80625,1.06125 C359.36,0.73875 359.955,0.48875 360.59375,0.30875 C361.23125,0.13 361.895,0.04 362.58625,0.04 C363.2775,0.04 363.94125,0.13 364.57875,0.30875 C365.21625,0.48875 365.8125,0.73875 366.3675,1.06125 C366.9225,1.38375 367.42875,1.77375 367.88625,2.2325 C368.345,2.69 368.735,3.1975 369.0575,3.75125 C369.38,4.30625 369.63125,4.9025 369.80875,5.54 C369.98875,6.1775 370.07875,6.84125 370.07875,7.5325 C370.07875,8.22375 369.98875,8.8875 369.80875,9.525 C369.63125,10.1625 369.38,10.75875 369.0575,11.31375 C368.735,11.86875 368.345,12.3725 367.88625,12.8275 C367.42875,13.2825 366.9225,13.6725 366.3675,13.99875 C365.8125,14.32375 365.21625,14.575 364.57875,14.75125 C363.94125,14.92625 363.2775,15.015 362.58625,15.015 C361.895,15.015 361.23125,14.92625 360.59375,14.75125 C359.955,14.575 359.36,14.32375 358.80625,13.99875 C358.25,13.6725 357.74375,13.2825 357.28625,12.8275 C356.8275,12.3725 356.4375,11.86875 356.115,11.31375 C355.7925,10.75875 355.54125,10.1625 355.36375,9.525 C355.18375,8.8875 355.09375,8.22375 355.09375,7.5325 L355.09375,7.5325 Z" id="Fill-16"></path>
                <path d="M168.94375,22.8625 L171.3025,22.8625 C173.71625,22.8625 175.4475,22.38125 176.49625,21.41625 C177.545,20.4525 178.06875,19.035 178.06875,17.1625 C178.06875,15.21625 177.50625,13.83125 176.38375,13.0075 C175.26125,12.185 173.52,11.7725 171.16125,11.7725 L168.94375,11.7725 L168.94375,22.8625 Z M168.94375,29.9375 L168.94375,45.68875 L160.24,45.68875 L160.24,4.64125 L171.47,4.64125 C176.73,4.64125 180.61375,5.65625 183.1225,7.6875 C185.63125,9.71875 186.88375,12.8025 186.88375,16.93875 C186.88375,18.3425 186.6975,19.615 186.3225,20.75625 C185.9475,21.89875 185.4475,22.91375 184.82,23.8025 C184.19375,24.6925 183.4725,25.46875 182.66,26.13375 C181.84375,26.79875 180.98875,27.355 180.09,27.80375 C182.1675,31.13625 184.03,34.1125 185.6775,36.7325 C186.38875,37.855 187.07625,38.95 187.74,40.0175 C188.405,41.08375 189,42.03875 189.52375,42.88125 C190.0475,43.72375 190.4775,44.3975 190.815,44.9025 L191.2925,45.68875 L181.63375,45.68875 L172.73375,29.9375 L168.94375,29.9375 L168.94375,29.9375 Z" id="Fill-8"></path>
                <path d="M218.26875,34.29 C218.26875,36.12375 217.955,37.77625 217.3275,39.245 C216.70125,40.715 215.785,41.96875 214.57625,43.0075 C213.37,44.04625 211.89,44.84625 210.14,45.4075 C208.39125,45.96875 206.3825,46.25 204.11875,46.25 C202.135,46.25 200.22,46.04375 198.3775,45.6325 C196.5325,45.22125 194.825,44.60375 193.2525,43.77875 L193.2525,35.69375 C194.15125,36.12375 195.05875,36.54 195.97625,36.94375 C196.8925,37.34625 197.82375,37.70625 198.77,38.02375 C199.715,38.3425 200.66,38.595 201.605,38.78125 C202.55125,38.97 203.49125,39.0625 204.4275,39.0625 C205.38125,39.0625 206.20125,38.955 206.8825,38.74 C207.56625,38.525 208.11875,38.225 208.54125,37.84125 C208.96125,37.45875 209.27125,37 209.46625,36.46625 C209.66375,35.9325 209.76125,35.3475 209.76125,34.71125 C209.76125,33.94375 209.5975,33.265 209.27125,32.67625 C208.9425,32.08625 208.485,31.535 207.89375,31.01875 C207.305,30.50375 206.59375,30.00375 205.76,29.51625 C204.9275,29.03125 203.99625,28.515 202.9675,27.9725 C202.10625,27.52375 201.1425,26.98125 200.075,26.34375 C199.00875,25.7075 198.0025,24.9175 197.05625,23.97125 C196.11125,23.02625 195.32,21.885 194.685,20.54625 C194.04875,19.20875 193.73,17.60375 193.73,15.73125 C193.73,13.8975 194.03375,12.255 194.6425,10.80375 C195.25125,9.35375 196.11625,8.1275 197.24,7.12625 C198.3625,6.125 199.725,5.3625 201.32375,4.8375 C202.925,4.31375 204.7175,4.05125 206.70125,4.05125 C207.69375,4.05125 208.66125,4.1175 209.6075,4.2475 C210.5525,4.37875 211.4875,4.56625 212.415,4.81 C213.34,5.0525 214.2725,5.3525 215.20875,5.7075 C216.145,6.06375 217.1075,6.47625 218.1,6.94375 L215.2925,13.71 C214.45,13.31625 213.66375,12.97 212.93375,12.67125 C212.20375,12.37125 211.4925,12.11875 210.8,11.9125 C210.10875,11.7075 209.43,11.5525 208.765,11.45 C208.1,11.3475 207.43125,11.295 206.7575,11.295 C205.2975,11.295 204.17875,11.68375 203.40125,12.46 C202.625,13.2375 202.2375,14.27125 202.2375,15.5625 C202.2375,16.255 202.35375,16.86875 202.58875,17.40125 C202.82125,17.935 203.19625,18.43625 203.71125,18.90375 C204.225,19.3725 204.89125,19.84875 205.70375,20.33625 C206.51875,20.8225 207.50625,21.375 208.66625,21.9925 C210.07,22.74125 211.36125,23.50375 212.54125,24.28 C213.72,25.0575 214.73625,25.91875 215.58625,26.86375 C216.43875,27.80875 217.09875,28.88125 217.56625,30.07875 C218.03375,31.27625 218.26875,32.68125 218.26875,34.29" id="Fill-10"></path>
                <polyline id="Fill-11" points="240.45625 45.68875 231.78 45.68875 231.78 11.885 221.47625 11.885 221.47625 4.64125 250.7325 4.64125 250.7325 11.885 240.45625 11.885 240.45625 45.68875"></polyline>
                <path d="M260.43,25.10875 C260.43,27.2625 260.6175,29.19375 260.9925,30.9075 C261.36625,32.62 261.94125,34.07 262.7175,35.25875 C263.49625,36.4475 264.47375,37.36 265.6525,37.99625 C266.83125,38.6325 268.23625,38.95 269.86375,38.95 C271.53,38.95 272.9575,38.6325 274.14625,37.99625 C275.33375,37.36 276.3075,36.4475 277.06625,35.25875 C277.8225,34.07 278.385,32.62 278.75125,30.9075 C279.115,29.19375 279.2975,27.2625 279.2975,25.10875 C279.2975,22.95625 279.115,21.02375 278.75125,19.31125 C278.385,17.59875 277.8225,16.1425 277.06625,14.945 C276.3075,13.7475 275.33875,12.83 274.16,12.19375 C272.98,11.5575 271.5675,11.23875 269.92,11.23875 C268.29125,11.23875 266.87875,11.5575 265.68125,12.19375 C264.48375,12.83 263.49625,13.7475 262.7175,14.945 C261.94125,16.1425 261.36625,17.59875 260.9925,19.31125 C260.6175,21.02375 260.43,22.95625 260.43,25.10875 Z M288.2825,25.10875 C288.2825,28.2725 287.9125,31.155 287.17375,33.75625 C286.43375,36.35875 285.30625,38.585 283.79,40.43875 C282.27375,42.29125 280.36,43.72375 278.0475,44.73375 C275.73625,45.745 273.00875,46.25 269.86375,46.25 C266.72,46.25 263.99125,45.745 261.68,44.73375 C259.36875,43.72375 257.45875,42.29125 255.9525,40.43875 C254.445,38.585 253.3225,36.35375 252.58375,33.7425 C251.84375,31.13125 251.47375,28.235 251.47375,25.0525 C251.47375,21.87125 251.84375,18.98375 252.58375,16.39125 C253.3225,13.79875 254.45,11.58625 255.96625,9.75125 C257.4825,7.91625 259.39625,6.49875 261.7075,5.4975 C264.01875,4.49625 266.7575,3.995 269.92,3.995 C273.065,3.995 275.7875,4.49625 278.09,5.4975 C280.3925,6.49875 282.2975,7.92125 283.805,9.765 C285.31125,11.60875 286.43375,13.8275 287.17375,16.41875 C287.9125,19.01125 288.2825,21.9075 288.2825,25.10875 L288.2825,25.10875 Z" id="Fill-12"></path>
            </g>
        </g>
    </g>
</svg>