<?xml version="1.0" encoding="utf-8"?>
<!-- Generator: Adobe Illustrator 24.0.3, SVG Export Plug-In . SVG Version: 6.00 Build 0)  -->
<svg version="1.1" id="Layer_1" xmlns="http://www.w3.org/2000/svg" xmlns:xlink="http://www.w3.org/1999/xlink" x="0px" y="0px"
	 viewBox="0 0 395 65" style="enable-background:new 0 0 395 65;" xml:space="preserve">
<style type="text/css">
	.st0{fill-rule:evenodd;clip-rule:evenodd;fill:#60AE51;}
	.st1{fill-rule:evenodd;clip-rule:evenodd;fill:#1F2333;}
</style>
<title>snowflake</title>
<desc>Created with Sketch.</desc>
<g id="Master">
	<g id="Trial-form" transform="translate(-130.000000, -40.000000)">
		<g id="layout_x2F_navigation" transform="translate(120.000000, 32.000000)">
			<g id="layout_x2F_navigation_x2F_mainNav">
				<g id="logo_x2F_logoPrimaryDark" transform="translate(10.000000, 8.000000)">
					<g id="logo_x2F_logoPrimary">
						<rect id="bg" x="209.7" y="3" class="st0" width="181.3" height="59.1"/>
						<path id="Launcher" class="st1" d="M349.3,28.4c2.1-0.1,4.1,0.8,5.6,2.3c1.5,1.5,2.2,3.6,2,5.7c0,0.6,0,1.1,0,1.7h-10.9
							c0.5,2.1,2.5,3.4,4.6,3.2c1.9,0,3.8-0.7,5.4-1.8v4.2c-1.9,1-3.9,1.5-6.1,1.5c-3.3,0.6-6.6-0.7-8.5-3.4
							c-1.9-2.7-2.1-6.3-0.4-9.2C342.8,29.7,346,28,349.3,28.4z M313.4,28.3c1.6,0,3.3,0.4,4.7,1.1V34c-1.3-0.9-2.9-1.4-4.5-1.5
							c-2.3,0-4.2,1.9-4.2,4.2c0,2.3,1.9,4.2,4.2,4.2c1.7,0,3.4-0.6,4.7-1.7v4.6c-1.6,0.8-3.4,1.3-5.2,1.2c-2.3,0.1-4.5-0.7-6.2-2.3
							c-1.7-1.6-2.6-3.8-2.7-6.1c0-2.4,1-4.6,2.7-6.3C308.7,28.9,311,28.1,313.4,28.3z M270.4,28.7v9.1c-0.1,0.8,0.1,1.6,0.6,2.3
							c0.5,0.5,1.1,0.7,1.7,0.7c1.2-0.1,2.4-0.6,3.3-1.4V28.7h4.9v16h-4.9v-1.5c-1.3,1.2-3.1,1.9-4.9,1.9c-1.6,0.1-3.1-0.5-4.2-1.6
							c-1.1-1.3-1.7-3-1.5-4.8v-10H270.4z M259.2,29.9c1.2,1.1,1.9,2.8,1.8,4.4v5.5c0,0.7,0.3,1.3,1,1.3c0.3,0,0.6-0.1,0.8-0.2v3.7
							c-0.8,0.3-1.6,0.5-2.4,0.5c-1.3,0.1-2.5-0.4-3.4-1.2h-0.2c-1.3,0.9-2.9,1.3-4.5,1.3c-1.3,0-2.6-0.3-3.7-1
							c-1.2-0.8-1.9-2.3-1.9-3.8c0-1.5,0.7-3,1.9-3.9c1.3-0.8,2.9-1.2,4.5-1.1c0.9,0,1.9,0.1,2.8,0.3V35c0-0.6-0.2-1.2-0.6-1.7
							c-0.7-0.5-1.6-0.8-2.5-0.7c-1.6,0-3.2,0.5-4.7,1.3v-4.3c1.8-0.8,3.7-1.3,5.6-1.2C255.7,28.3,257.6,28.8,259.2,29.9z
							 M327.1,19.9v10.4c1.3-1.2,3.1-1.8,4.8-1.8c1.6,0,3.1,0.5,4.2,1.6c1.1,1.3,1.6,3,1.4,4.7v10h-4.9v-9.2
							c0.1-0.8-0.1-1.6-0.6-2.3c-0.4-0.5-1.1-0.7-1.7-0.7c-1.2,0.1-2.4,0.5-3.4,1.4v10.8h-4.9l0.1-24.9H327.1z M299.5,30
							c1.1,1.3,1.6,3,1.4,4.7v10h-4.9v-9.2c0.1-0.8-0.1-1.6-0.5-2.3c-0.4-0.5-1.1-0.7-1.7-0.7c-1.2,0.1-2.4,0.5-3.4,1.4v10.8h-4.9
							v-16h4.9v1.5c1.4-1.2,3.1-1.8,4.9-1.9C296.8,28.4,298.3,28.9,299.5,30z M234.7,21.2v19.1h10.3v4.5h-15.5V21.2H234.7z
							 M371.1,28.5v4.6c-0.4-0.1-0.9-0.1-1.3-0.1c-1.7-0.1-3.3,0.6-4.3,1.9v9.7h-4.9V28.7h4.8v2.1c1-1.5,2.8-2.4,4.6-2.4
							C370.4,28.5,370.8,28.5,371.1,28.5z M254.1,38.3c-1.3,0-2.5,0.4-2.5,1.6s0.9,1.6,2,1.6c0.8,0,1.6-0.3,2.3-0.7v-2.3
							C255.3,38.3,254.7,38.3,254.1,38.3z M349.3,32.1c-1.6,0-3,1.2-3.3,2.8h6.4C352.3,33.3,350.9,32.1,349.3,32.1z"/>
						<path id="DisplayNote" class="st1" d="M9.4,39.6h1.5c3.5,0,5.7-0.6,7.3-2c1.5-1.3,2.4-3.3,2.4-5.8c0-2.7-1-4.9-2.8-6.2
							c-1.7-1.3-4.1-1.5-6.8-1.5H9.4V39.6z M4,44.5V19.1h6.9c4.4,0,7.8,0.7,10.3,2.6c3,2.2,4.7,5.7,4.7,10.1c0,4-1.5,7.4-4.1,9.6
							c-2.5,2.1-6,3.1-11.2,3.1H4z M28.7,21.8c0-1.7,1.4-3,3-3c1.6,0,3,1.4,3,3s-1.4,3-3,3C30,24.8,28.7,23.5,28.7,21.8L28.7,21.8z
							 M29.1,44.5h5.2V27.3h-5.2V44.5z M38,43.4v-4.7c2.3,1.4,5,2,6.6,2c1.4,0,2.3-0.4,2.3-1.3c0-1.3-1.9-1.2-4.4-1.9
							c-3.2-0.8-5-2.2-5-5c0-3.6,3.2-5.7,7.3-5.7c2,0,4.5,0.4,6.4,1.4v4.6c-2.2-1.3-4.8-1.9-6.3-1.9c-1.4,0-2.2,0.4-2.2,1.2
							c0,1.3,1.8,1.2,4.3,1.8c3.2,0.8,5.1,2.1,5.1,5c0,3.8-3.2,5.8-7.5,5.8C42.6,44.9,40,44.5,38,43.4L38,43.4z M60.4,44.2v8h-5.2
							V27.3h5v0.9l0.1,0c1.1-0.8,2.5-1.3,4.1-1.3c4.3,0,7.9,3.5,7.9,8.9c0,5.5-3.8,9.1-8.7,9.1C62.3,44.9,61.2,44.6,60.4,44.2
							L60.4,44.2z M60.4,39.9c0.6,0.3,1.6,0.7,2.6,0.7c2.7,0,4.2-2,4.2-4.6c0-2.6-1.5-4.7-4-4.7c-1,0-2,0.4-2.8,0.9V39.9z
							 M75.3,44.5h5.2V17.7h-5.2V44.5z M94.2,43.4L94.2,43.4c-1.2,0.8-2.8,1.4-4.7,1.4c-1.4,0-2.8-0.4-3.9-1.1c-1.2-0.9-2-2.2-2-4
							c0-1.9,0.8-3.3,2-4.2c1.3-0.9,2.9-1.2,4.7-1.2c1,0,2,0.1,2.9,0.3V34c0-0.8-0.3-1.5-0.6-1.8c-0.5-0.5-1.4-0.7-2.6-0.7
							c-1.9,0-3.6,0.6-4.9,1.4v-4.6c1.4-0.7,3.4-1.3,5.8-1.3c2.2,0,4.2,0.5,5.6,1.6c1.3,1,1.9,2.6,1.9,4.8v5.9c0,0.8,0.3,1.4,1,1.4
							c0.3,0,0.6-0.1,0.8-0.2v4c-0.6,0.3-1.5,0.5-2.5,0.5C96.4,44.8,95.1,44.4,94.2,43.4L94.2,43.4z M93.3,40.2v-2.5
							c-0.5-0.2-1.3-0.2-1.8-0.2c-1.3,0-2.6,0.4-2.6,1.7c0,1.1,0.9,1.7,2.1,1.7C91.8,40.9,92.6,40.6,93.3,40.2L93.3,40.2z
							 M107.6,52.2h-5.3l4.4-9.6l-6.8-15.3h5.4l1.7,4.3c0.7,1.9,1.5,3.7,2.1,5.5h0.1c0.7-1.9,1.5-3.7,2.3-5.6l1.8-4.2h5.1
							L107.6,52.2z M138.6,44.5l-7.4-10.2c-1.6-2.2-3.1-4.3-4.6-6.5l-0.1,0c0,2.4,0.1,4.9,0.1,7.3v9.4h-5.2V19.1h5.1l7.4,10.2
							c1.6,2.2,3.1,4.3,4.6,6.5l0.1,0c0-2.4-0.1-4.9-0.1-7.3v-9.4h5.2v25.4H138.6z M151.6,35.9c0,2.5,1.8,4.4,4.1,4.4s4.1-2,4.1-4.4
							c0-2.5-1.8-4.4-4.1-4.4S151.6,33.4,151.6,35.9L151.6,35.9z M146.4,35.9c0-5.1,4-9,9.3-9s9.3,3.9,9.3,9c0,5.1-4,9-9.3,9
							S146.4,40.9,146.4,35.9L146.4,35.9z M178.9,39.7v4.2c-0.8,0.5-2.3,0.9-3.8,0.9c-1.7,0-3.3-0.6-4.3-1.7c-0.9-1-1.5-2.4-1.5-5.1
							v-6.3h-2.7v-4.4h2.7v-4.5l5.2-0.9v5.4h4.4v4.4h-4.4v5.8c0,1.7,0.4,2.9,1.9,2.9C177.3,40.4,178.3,40,178.9,39.7L178.9,39.7z
							 M197.4,37.3h-11.3c0.6,2.4,2.5,3.5,4.8,3.5c1.9,0,3.9-0.7,5.7-1.9v4.4c-1.6,1.1-4.1,1.6-6.3,1.6c-5.5,0-9.5-3.5-9.5-8.9
							c0-5.5,4.1-9.1,8.7-9.1c4.1,0,8,2.8,8,8.6C197.5,36,197.5,36.8,197.4,37.3L197.4,37.3z M186,33.9h6.7c-0.3-1.9-1.6-3-3.3-3
							C187.9,30.9,186.5,31.9,186,33.9L186,33.9z"/>
					</g>
				</g>
			</g>
		</g>
	</g>
</g>
</svg>
