<?xml version="1.0" encoding="UTF-8"?>
<svg width="438px" height="65px" viewBox="0 0 438 65" version="1.1" xmlns="http://www.w3.org/2000/svg" xmlns:xlink="http://www.w3.org/1999/xlink">
    <!-- Generator: Sketch 61 (89581) - https://sketch.com -->
    <title>snowflake</title>
    <desc>Created with Sketch.</desc>
    <defs>
        <linearGradient x1="50%" y1="-327.499899%" x2="80.4778125%" y2="2696.66688%" id="linearGradient-1">
            <stop stop-color="#60ABAF" offset="0%"></stop>
            <stop stop-color="#3B8F93" offset="100%"></stop>
        </linearGradient>
        <linearGradient x1="50%" y1="41.6665921%" x2="88.7794809%" y2="108.425856%" id="linearGradient-2">
            <stop stop-color="#60ABAF" offset="0%"></stop>
            <stop stop-color="#3B8F93" offset="100%"></stop>
        </linearGradient>
    </defs>
    <g id="Software" stroke="none" stroke-width="1" fill="none" fill-rule="evenodd">
        <g id="SOFTWARE-SUB-PAGES-EDUCATION-Copy" transform="translate(-200.000000, -305.000000)" fill-rule="nonzero">
            <g id="snowflake" transform="translate(200.000000, 305.000000)">
                <path d="M86.360404,11.6053565 L86.360404,0.392156863 L90.7175142,0.392156863 L90.7175142,18.627451 L86.360404,18.627451 L79.4331914,7.75869882 L79.4331914,18.627451 L75,18.627451 L75,0.392156863 L79.4331914,0.392156863 L86.360404,11.6053565 Z M105.301922,11.4351088 L105.301922,0.392156863 L110.062147,0.392156863 L110.062147,11.4351088 C110.062147,14.498833 109.382115,15.8574476 108.198683,17.0436022 C106.989156,18.252594 105.301922,19.0196079 102.984434,19.0196079 C101.62437,19.0196079 99.1569453,18.6971313 97.6200484,17.0678175 C96.0831521,15.411729 95.7551789,14.1283196 95.7551789,11.4351088 L95.7551789,0.392156863 L100.516809,0.392156863 L100.516809,11.4351088 C100.516809,12.669694 100.591676,14.919155 102.934255,14.919155 C105.301922,14.919155 105.301922,12.8921569 105.301922,11.4351088 Z M115.704331,18.627451 L115.704331,0.392156863 L120.54049,0.392156863 L120.54049,18.627451 L115.704331,18.627451 Z M124.167608,4.48232363 L124.167608,0.392156863 L138.071563,0.392156863 L138.071563,4.48232363 L133.506423,4.48232363 L133.506423,18.627451 L128.758565,18.627451 L128.758565,4.48232363 L124.167608,4.48232363 Z M141.900188,18.627451 L141.900188,0.392156863 L152.781544,0.392156863 L152.781544,4.48232363 L146.486542,4.48232363 L146.486542,7.51322595 L152.604439,7.51322595 L152.604439,11.6037855 L146.486542,11.6037855 L146.486542,14.5368915 L152.781544,14.5368915 L152.781544,18.627451 L141.900188,18.627451 Z M179.603841,2.03691447 C179.731112,2.03691447 180.028207,2.03691447 180.028207,1.64550431 C180.028207,1.31824307 179.766606,1.31315188 179.639139,1.31315188 L179.307921,1.31315188 L179.307921,2.03691447 L179.603841,2.03691447 Z M180.196072,2.21245846 C180.360798,2.28373503 180.498658,2.40103589 180.519641,2.76006612 C180.547292,3.168379 180.547292,3.21236682 180.589454,3.33333333 L180.041346,3.33333333 C179.998792,3.25146711 179.977417,2.84844905 179.966239,2.77085943 C179.951335,2.63808137 179.918782,2.42873192 179.562463,2.42873192 L179.338906,2.42873192 L179.338906,3.33333333 L178.775895,3.33333333 L178.775895,0.980392159 L179.73268,0.980392159 C180.169205,0.980392159 180.562588,1.16876593 180.562588,1.6432642 C180.562588,1.83550727 180.498658,2.06909075 180.196072,2.21245846 Z M179.686356,4.05769325 C180.679642,4.05769325 181.497834,3.26491323 181.497834,2.25420793 C181.497834,1.28474782 180.716051,0.451119198 179.692084,0.451119198 C178.662797,0.451119198 177.868332,1.26709964 177.868332,2.25420793 C177.868332,3.25400705 178.692866,4.05769325 179.686356,4.05769325 Z M179.698015,1.59872116e-14 C180.982373,1.59872116e-14 182,1.03866477 182,2.25420793 C182,3.49929692 180.959259,4.50980392 179.686356,4.50980392 C178.40793,4.50980392 177.365348,3.4931498 177.365348,2.25420793 C177.365348,1.0446136 178.371725,1.59872116e-14 179.698015,1.59872116e-14 Z M175.587976,15.402209 L177.318512,17.2417164 L174.191354,20 L169.726119,15.2540319 C169.726119,15.2540319 170.468643,14.6359105 170.738761,14.3997654 C170.935193,14.2279347 171.075905,14.0905092 171.315337,13.8492816 C171.841241,13.3185417 172.28518,12.7064803 172.581342,12.0166162 C172.868015,11.3500147 173.0273,10.6194898 173.0273,9.85358227 C173.0273,9.08767473 172.868015,8.35812727 172.581342,7.69113477 C172.28518,7.00107518 171.853152,6.37884859 171.315539,5.85846936 C170.777321,5.33809014 170.135133,4.91955823 169.42269,4.63278273 C168.734069,4.35597693 167.980241,4.20095787 167.189266,4.20095787 C166.39829,4.20095787 165.644461,4.35597693 164.956043,4.63278273 C164.242994,4.91955823 163.60121,5.33809014 163.062992,5.85846936 C162.525379,6.37884859 162.093351,7.00107518 161.797189,7.69113477 C161.51092,8.35812727 161.351231,9.08767473 161.351231,9.85358227 C161.351231,10.6194898 161.51092,11.3500147 161.797189,12.0166162 C162.093351,12.7064803 162.577868,13.3871567 163.040381,13.8344248 C163.303434,14.0889454 163.518237,14.3076923 163.600403,14.380608 C163.921395,14.6656241 164.64797,15.2540319 164.64797,15.2540319 L161.852707,18.2218747 C161.180843,17.8205454 160.55319,17.3554882 159.997206,16.8171244 C159.059664,15.9104682 158.307249,14.8261167 157.790632,13.6234972 C157.291579,12.461734 157.013183,11.1887401 157.013183,9.85358227 C157.013183,8.51842441 157.291579,7.2462125 157.790632,6.08444923 C158.307249,4.88182973 159.059664,3.79747825 159.996802,2.88945362 C160.934142,1.98201545 162.054185,1.25266347 163.296772,0.753005573 C164.496155,0.269963835 165.810813,0 167.189266,0 C168.567718,0 169.882377,0.269963835 171.08176,0.753005573 C172.324345,1.25266347 173.444389,1.98201545 174.381325,2.88945362 C175.318665,3.79747825 176.071686,4.88182973 176.5879,6.08444923 C177.086953,7.2462125 177.365348,8.51842441 177.365348,9.85358227 C177.365348,11.1887401 177.086953,12.461734 176.5879,13.6234972 C176.317781,14.2527612 175.97983,14.8462516 175.587976,15.402209 Z" id="NUITEQ" fill="#463F3A"></path>
                <path d="M99.9785809,32.5127479 C96.4963456,30.2478754 92.4061009,29.3087819 89.3107807,29.3087819 C84.3361588,29.3087819 81.0750178,31.2974504 81.0750178,34.611898 C81.0750178,44.6657224 102.852807,39.417847 102.797743,53.4490085 C102.797743,59.8569405 97.1043549,64 88.8133185,64 C83.1754137,64 77.648056,61.5694051 74,58.0892351 L75.9898487,54.2776204 C79.5826312,57.7025496 84.5019795,59.6912181 88.868592,59.6912181 C94.4512233,59.6912181 97.9334586,57.4263456 97.9334586,53.6699717 C97.9887321,43.3399433 76.2109431,48.8087819 76.2109431,34.9433428 C76.2109431,28.8668555 81.57248,25 89.5871485,25 C94.0643082,25 98.6520151,26.4362606 101.857882,28.5906516 L99.9785809,32.5127479 Z M113.750914,25.1657224 L118.338621,25.1657224 L141.553523,56.5977337 L141.553523,25.1657224 L145.920135,25.1657224 L145.920135,63.8342776 L141.387702,63.8342776 L118.1728,32.4575071 L118.1728,63.8342776 L113.750914,63.8342776 L113.750914,25.1657224 Z M176.219267,25.0552408 C187.495077,25.0552408 196.449396,33.6175637 196.449396,44.5 C196.449396,55.3824363 187.495077,64 176.219267,64 C164.888184,64 155.933865,55.3824363 155.933865,44.5 C155.933865,33.6175637 164.888184,25.0552408 176.219267,25.0552408 Z M176.219267,29.1430595 C167.596589,29.1430595 160.411024,35.9376771 160.411024,44.5 C160.411024,53.0623229 167.596589,59.9674221 176.219267,59.9674221 C184.841945,59.9674221 191.916963,53.0623229 191.916963,44.5 C191.916963,35.9376771 184.841945,29.1430595 176.219267,29.1430595 Z M200.383032,25.1657224 L205.13656,25.1657224 L215.749087,58.8626062 L226.251066,25.1657224 L230.672952,25.1657224 L241.285479,58.8626062 L251.787458,25.1657224 L256.375165,25.1657224 L243.385875,63.8342776 L238.853441,63.8342776 L228.406736,31.0764873 L217.849482,63.8342776 L213.317049,63.8342776 L200.383032,25.1657224 Z M264.012131,25.1657224 L288.608872,25.1657224 L288.608872,29.2535411 L268.434017,29.2535411 L268.434017,43.1189802 L286.508477,43.1189802 L286.508477,47.1515581 L268.434017,47.1515581 L268.434017,63.8342776 L264.012131,63.8342776 L264.012131,25.1657224 Z M297.019668,25.1657224 L301.441554,25.1657224 L301.441554,59.7464589 L318.410542,59.7464589 L318.410542,63.8342776 L297.019668,63.8342776 L297.019668,25.1657224 Z M356.724343,63.8342776 L352.35773,53.9461756 L331.298497,53.9461756 L326.987159,63.8342776 L322.288905,63.8342776 L339.644808,25.1657224 L344.232514,25.1657224 L361.533144,63.8342776 L356.724343,63.8342776 Z M333.122526,49.8583569 L350.588976,49.8583569 L341.800477,29.9716714 L333.122526,49.8583569 Z M401.118237,63.8342776 L395.701426,63.8342776 L381.440843,45.4390935 L373.923637,53.7252125 L373.923637,63.8342776 L369.501751,63.8342776 L369.501751,25.1657224 L373.923637,25.1657224 L373.923637,47.6487252 L394.706502,25.1657224 L399.957492,25.1657224 L384.591437,42.0141643 L401.118237,63.8342776 Z M410.026495,25.1657224 L436.281444,25.1657224 L436.281444,29.2535411 L414.448381,29.2535411 L414.448381,42.2351275 L433.959953,42.2351275 L433.959953,46.2677054 L414.448381,46.2677054 L414.448381,59.7464589 L437,59.7464589 L437,63.8342776 L410.026495,63.8342776 L410.026495,25.1657224 Z" id="SNOWFLAKE" stroke="#463F3A" stroke-width="0.33" fill="#463F3A"></path>
                <g id="Group-2" fill="url(#linearGradient-2)">
                    <path d="M31.211079,28.7472232 L54.3806738,15.456945 C55.4237342,14.8586365 56.7574906,15.2136993 57.3597018,16.25 C57.961913,17.2863007 57.6045342,18.6114132 56.5614738,19.2097217 L33.391879,32.5 L56.5614738,45.7902783 C57.6045342,46.3885869 57.961913,47.7136995 57.3597018,48.75 C56.7574906,49.7863005 55.4237342,50.1413637 54.3806738,49.5430549 L31.211079,36.2527768 L31.211079,62.8333333 C31.211079,64.0299501 30.2347015,65 29.030279,65 C27.8258564,65 26.849479,64.0299501 26.849479,62.8333333 L26.849479,36.2527768 L3.67988414,49.5430549 C2.63682358,50.1413637 1.30306723,49.7863005 0.700855941,48.75 C0.0986446479,47.7136995 0.456023586,46.3885869 1.49908414,45.7902783 L24.668679,32.5 L1.49908414,19.2097217 C0.456023586,18.6114132 0.0986446479,17.2863007 0.700855941,16.25 C1.30306723,15.2136993 2.63682358,14.8586365 3.67988414,15.456945 L26.849479,28.7472232 L26.849479,2.16666667 C26.849479,0.970049711 27.8258564,0 29.030279,0 C30.2347015,0 31.211079,0.970049711 31.211079,2.16666667 L31.211079,28.7472232 Z" id="Combined-Shape"></path>
                </g>
            </g>
        </g>
    </g>
</svg>