<?xml version="1.0" encoding="UTF-8"?>
<svg width="305px" height="78px" viewBox="0 0 305 78" version="1.1" xmlns="http://www.w3.org/2000/svg" xmlns:xlink="http://www.w3.org/1999/xlink">
    <!-- Generator: Sketch 61 (89581) - https://sketch.com -->
    <title>stage</title>
    <desc>Created with Sketch.</desc>
    <defs>
        <linearGradient x1="0%" y1="-711.583719%" x2="100%" y2="811.583719%" id="linearGradient-1">
            <stop stop-color="#577CB8" offset="0%"></stop>
            <stop stop-color="#173B75" offset="100%"></stop>
        </linearGradient>
        <linearGradient x1="0%" y1="0%" x2="100%" y2="100%" id="linearGradient-2">
            <stop stop-color="#577CB8" offset="0%"></stop>
            <stop stop-color="#173B75" offset="100%"></stop>
        </linearGradient>
    </defs>
    <g id="Software" stroke="none" stroke-width="1" fill="none" fill-rule="evenodd">
        <g id="SOFTWARE-SUB-PAGES-EDUCATION-Copy" transform="translate(-198.000000, -419.000000)" fill-rule="nonzero">
            <g id="stage" transform="translate(198.000000, 419.000000)">
                <g id="flow-copy" transform="translate(94.000000, 0.000000)" fill="#463F3A">
                    <path d="M30.9243943,40.2962083 C26.7985438,37.609 21.9523067,36.4947917 18.284884,36.4947917 C12.3908119,36.4947917 8.5269201,38.8542917 8.5269201,42.7867917 C8.5269201,54.715375 34.3298582,48.4889167 34.264617,65.1365 C34.264617,72.7393333 27.5189304,77.6549583 17.6954768,77.6549583 C11.0155284,77.6549583 4.46655928,74.771125 0.144239691,70.642 L2.50186856,66.119625 C6.75869845,70.1832083 12.5872809,72.5427083 17.7609665,72.5427083 C24.3754253,72.5427083 28.5012758,69.8555 28.5012758,65.3986667 C28.5667655,53.142375 2.76382732,59.631 2.76382732,43.1800417 C2.76382732,35.9704583 9.11632732,31.3825417 18.6123325,31.3825417 C23.9169974,31.3825417 29.3526418,33.086625 33.1510438,35.64275 L30.9243943,40.2962083 Z M38.7831572,31.5791667 L73.9511211,31.5791667 L73.9511211,36.42925 L58.953982,36.42925 L58.953982,77.4583333 L53.7148067,77.4583333 L53.7148067,36.42925 L38.7831572,36.42925 L38.7831572,31.5791667 Z M115.668054,77.4583333 L110.494369,65.726375 L85.5427964,65.726375 L80.4346005,77.4583333 L74.8679768,77.4583333 L95.4317397,31.5791667 L100.867384,31.5791667 L121.365657,77.4583333 L115.668054,77.4583333 Z M87.7039562,60.8762917 L108.398698,60.8762917 L97.9858376,37.2812917 L87.7039562,60.8762917 Z M160.528492,69.0034583 L160.528492,55.0430833 L165.17826,55.0430833 L165.17826,71.6906667 C160.659472,75.2954583 154.306972,77.6549583 148.150941,77.6549583 C134.856534,77.6549583 124.247204,67.4304583 124.247204,54.51875 C124.247204,41.6070417 134.922023,31.4480833 148.412899,31.4480833 C154.765399,31.4480833 160.92143,33.873125 165.30924,37.7400833 L162.296714,41.5415 C158.563802,38.198875 153.521095,36.232625 148.412899,36.232625 C137.934549,36.232625 129.551869,44.3597917 129.551869,54.51875 C129.551869,64.74325 138.000039,72.8704167 148.478389,72.8704167 C152.60424,72.8704167 156.992049,71.4285 160.528492,69.0034583 Z M177.88326,31.5791667 L208.990863,31.5791667 L208.990863,36.42925 L183.122436,36.42925 L183.122436,51.8315417 L206.240296,51.8315417 L206.240296,56.6160833 L183.122436,56.6160833 L183.122436,72.60825 L209.842229,72.60825 L209.842229,77.4583333 L177.88326,77.4583333 L177.88326,31.5791667 Z" id="STAGE" stroke="#463F3A" stroke-width="0.33"></path>
                    <path d="M15.3817207,13.8297165 L15.3817207,0.467320261 L20.4508125,0.467320261 L20.4508125,22.1977124 L15.3817207,22.1977124 L7.32255376,9.24578276 L7.32255376,22.1977124 L2.16494845,22.1977124 L2.16494845,0.467320261 L7.32255376,0.467320261 L15.3817207,13.8297165 Z M37.4184132,13.626838 L37.4184132,0.467320261 L42.9564913,0.467320261 L42.9564913,13.626838 C42.9564913,17.2777759 42.1653373,18.8967917 40.7885239,20.3102927 C39.3813532,21.7510078 37.4184132,22.6650327 34.7222313,22.6650327 C33.1399233,22.6650327 30.2693046,22.2807481 28.4812685,20.3391492 C26.6932324,18.3656438 26.3116664,16.8362475 26.3116664,13.626838 L26.3116664,0.467320261 L31.8513791,0.467320261 L31.8513791,13.626838 C31.8513791,15.098052 31.9384808,17.7786597 34.6638522,17.7786597 C37.4184132,17.7786597 37.4184132,15.3631536 37.4184132,13.626838 Z M49.5206477,22.1977124 L49.5206477,0.467320261 L55.1470673,0.467320261 L55.1470673,22.1977124 L49.5206477,22.1977124 Z M59.366882,5.34143566 L59.366882,0.467320261 L75.5428389,0.467320261 L75.5428389,5.34143566 L70.2317235,5.34143566 L70.2317235,22.1977124 L64.7080328,22.1977124 L64.7080328,5.34143566 L59.366882,5.34143566 Z M79.9970877,22.1977124 L79.9970877,0.467320261 L92.6565323,0.467320261 L92.6565323,5.34143566 L85.332883,5.34143566 L85.332883,8.95326093 L92.4504871,8.95326093 L92.4504871,13.8278444 L85.332883,13.8278444 L85.332883,17.323129 L92.6565323,17.323129 L92.6565323,22.1977124 L79.9970877,22.1977124 Z M123.861777,2.42732308 C124.009844,2.42732308 124.355487,2.42732308 124.355487,1.96089264 C124.355487,1.57090632 124.051139,1.56483933 123.902843,1.56483933 L123.517502,1.56483933 L123.517502,2.42732308 L123.861777,2.42732308 Z M124.550782,2.636513 C124.742426,2.72145091 124.902813,2.86123443 124.927225,3.28907879 C124.959394,3.77565164 124.959394,3.82807046 125.008445,3.97222222 L124.370773,3.97222222 C124.321265,3.87466497 124.296397,3.39440179 124.283393,3.30194082 C124.266054,3.14371364 124.228181,2.89423887 123.813637,2.89423887 L123.553549,2.89423887 L123.553549,3.97222222 L122.898538,3.97222222 L122.898538,1.16830066 L124.011669,1.16830066 C124.519525,1.16830066 124.977189,1.3927794 124.977189,1.95822317 C124.977189,2.18731283 124.902813,2.46566648 124.550782,2.636513 Z M123.957775,4.83541779 C125.113371,4.83541779 126.065261,3.89068826 126.065261,2.68626445 C126.065261,1.53099115 125.15573,0.537583711 123.964439,0.537583711 C122.76696,0.537583711 121.842674,1.5099604 121.842674,2.68626445 C121.842674,3.87769173 122.801942,4.83541779 123.957775,4.83541779 Z M123.97134,1.9095836e-14 C125.465571,1.9095836e-14 126.649485,1.23774219 126.649485,2.68626445 C126.649485,4.16999549 125.438679,5.37418301 123.957775,5.37418301 C122.470446,5.37418301 121.257499,4.16267018 121.257499,2.68626445 C121.257499,1.24483121 122.428325,1.9095836e-14 123.97134,1.9095836e-14 Z M119.189692,18.354299 L121.203009,20.5463787 L117.564852,23.8333333 L112.369967,18.1777213 C112.369967,18.1777213 113.233824,17.4411266 113.548082,17.1597204 C113.776612,16.9549555 113.940317,16.7911902 114.218874,16.5037272 C114.830714,15.8712622 115.347196,15.141889 115.691753,14.3198009 C116.02527,13.5254342 116.210584,12.654892 116.210584,11.7421855 C116.210584,10.829479 116.02527,9.96010167 115.691753,9.16526894 C115.347196,8.34294792 114.844572,7.60146124 114.219109,6.98134266 C113.592942,6.36122408 112.845817,5.86247355 112.016956,5.52073275 C111.215809,5.19087251 110.3388,5.00614146 109.418574,5.00614146 C108.498348,5.00614146 107.621339,5.19087251 106.820427,5.52073275 C105.990862,5.86247355 105.244206,6.36122408 104.618039,6.98134266 C103.992576,7.60146124 103.489952,8.34294792 103.145395,9.16526894 C102.812348,9.96010167 102.626565,10.829479 102.626565,11.7421855 C102.626565,12.654892 102.812348,13.5254342 103.145395,14.3198009 C103.489952,15.141889 104.053643,15.9530284 104.591733,16.4860229 C104.897771,16.7893266 105.147674,17.05 105.243267,17.1368911 C105.616712,17.4765354 106.462014,18.1777213 106.462014,18.1777213 L103.209985,21.7144007 C102.428334,21.2361499 101.698119,20.6819568 101.051283,20.0404066 C99.9605402,18.9599746 99.0851746,17.667789 98.4841389,16.2346675 C97.9035371,14.850233 97.5796495,13.3332486 97.5796495,11.7421855 C97.5796495,10.1511224 97.9035371,8.6350699 98.4841389,7.25063533 C99.0851746,5.81751376 99.9605402,4.52532825 101.050813,3.44326557 C102.14132,2.36190174 103.444387,1.4927573 104.89002,0.897331641 C106.285391,0.321706904 107.814872,0 109.418574,0 C111.022276,0 112.551758,0.321706904 113.947128,0.897331641 C115.392761,1.4927573 116.695828,2.36190174 117.785866,3.44326557 C118.876374,4.52532825 119.752443,5.81751376 120.35301,7.25063533 C120.933611,8.6350699 121.257499,10.1511224 121.257499,11.7421855 C121.257499,13.3332486 120.933611,14.850233 120.35301,16.2346675 C120.038752,16.9845405 119.645577,17.6917831 119.189692,18.354299 Z" id="NUITEQ"></path>
                </g>
                <g id="Group" fill="url(#linearGradient-2)">
                    <path d="M74.1206631,33.8039731 L75.7154063,35.3987162 C77.4281981,37.1115079 77.4281981,39.8884921 75.7154063,41.6012838 L41.6012838,75.7154063 C39.8884921,77.4281981 37.1115079,77.4281981 35.3987162,75.7154063 L20.3806654,60.6973554 C19.9591181,60.2758078 19.9591181,59.5923451 20.3806654,59.1707975 C20.5830997,58.9683635 20.8576597,58.8546372 21.1439451,58.8546372 L31.2173298,58.8546463 C31.5351893,58.8546463 31.8491275,58.7844573 32.1367226,58.6490924 L45.0416043,52.5750221 C45.2811418,52.4622771 45.4739604,52.270176 45.5871265,52.0315297 C45.856927,51.4625705 45.6126884,50.7834352 45.0416043,50.5146385 L32.1367197,44.4405949 C31.8491265,44.3052311 31.5351906,44.2350427 31.2173333,44.2350425 L5.70681171,44.2350303 C4.56167209,44.2350297 3.46343455,43.7801246 2.65369854,42.9703886 L1.28459383,41.6012838 C-0.428197943,39.8884921 -0.428197943,37.1115079 1.28459383,35.3987162 L35.3987162,1.28459383 C37.1115079,-0.428197943 39.8884921,-0.428197943 41.6012838,1.28459383 L56.3937091,16.0770193 C56.8152566,16.4985665 56.8152566,17.1820296 56.3937091,17.6035769 C56.191275,17.8060112 55.9167151,17.9197375 55.6304296,17.9197373 L45.5570473,17.919731 C45.239188,17.9197309 44.92525,17.9899198 44.6376551,18.125285 L31.7342579,24.1986564 C31.4944314,24.3115374 31.3014656,24.5045032 31.1885846,24.7443297 C30.9206064,25.3136748 31.1649127,25.9924596 31.7342579,26.2604377 L45.0743727,32.5393346 L71.0675474,32.5393313 C72.2126876,32.5393311 73.3109262,32.9942364 74.1206631,33.8039731 Z M36.5619587,23.2617294 L43.7786432,19.4564858 C43.807525,19.4412567 43.8396365,19.4331726 43.8722864,19.4328974 C43.9851049,19.432006 44.0772957,19.52273 44.0782004,19.6355485 C44.0797883,19.8335485 43.7677264,20.3663767 43.7677264,20.8684954 C43.7677264,21.370614 44.6168224,22.6472013 44.6168224,23.0648009 C44.6168224,23.4824005 43.282425,24.5480553 43.282425,25.2754135 C43.282425,26.0027716 44.6168224,27.1043294 44.6168224,27.4961375 C44.6168224,27.8879457 43.7677264,29.1029891 43.7677264,29.6380578 C43.7677264,30.1731266 44.0797883,30.4958606 44.0797883,30.6896285 C44.0797883,30.7271046 44.0713903,30.7641045 44.0552116,30.7979085 C43.9954102,30.9228582 43.8456398,30.9756715 43.72069,30.9158701 L36.575457,27.4961375 C35.7751165,27.1202207 35.2616822,26.2985703 35.2616822,25.3936997 C35.2616822,24.4854006 35.7668399,23.6571297 36.5619587,23.2617294 Z M39.7184152,49.525087 C40.513534,49.9204873 41.0186916,50.7487582 41.0186916,51.6570574 C41.0186916,52.561928 40.5052573,53.3835784 39.7049168,53.7594952 L32.5596839,57.1792275 C32.4347341,57.2390291 32.2849636,57.1862157 32.2251623,57.0612662 C32.2089835,57.0274622 32.2005856,56.9904623 32.2005856,56.9529859 C32.2005856,56.7592184 32.5126474,56.4364845 32.5126474,55.9014152 C32.5126474,55.3663465 31.6635514,54.1513032 31.6635514,53.7594952 C31.6635514,53.367687 32.9979488,52.2661292 32.9979488,51.5387711 C32.9979488,50.8114129 31.6635514,49.7457581 31.6635514,49.3281585 C31.6635514,48.9105589 32.5126474,47.6339717 32.5126474,47.131853 C32.5126474,46.6297344 32.2005856,46.0969062 32.2021734,45.8989061 C32.2030781,45.7860877 32.295269,45.6953636 32.4080874,45.6962551 C32.4407373,45.6965302 32.4728488,45.7046144 32.5017306,45.7198435 L39.7184152,49.525087 Z" id="Combined-Shape"></path>
                </g>
            </g>
        </g>
    </g>
</svg>