<?xml version="1.0" encoding="UTF-8"?>
<svg width="222px" height="62px" viewBox="0 0 222 62" version="1.1" xmlns="http://www.w3.org/2000/svg" xmlns:xlink="http://www.w3.org/1999/xlink">
    <!-- Generator: Sketch 61 (89581) - https://sketch.com -->
    <title>whiteboard-icon</title>
    <desc>Created with Sketch.</desc>
    <g id="Software" stroke="none" stroke-width="1" fill="none" fill-rule="evenodd">
        <g id="Software-Landing-All" transform="translate(-692.000000, -632.000000)" fill="#000000">
            <g id="top-row-software" transform="translate(204.000000, 632.000000)">
                <g id="WHITEBOARD" transform="translate(445.000000, 0.000000)">
                    <g id="whiteboard-icon" transform="translate(43.000000, 0.000000)">
                        <g id="word" transform="translate(92.000000, 21.000000)">
                            <polygon id="Path" points="5.44500017 13.3099944 5.74750015 15.7299945 5.74750015 15.7299945 6.20124979 13.3099944 9.37749984 1.36124619 11.7974996 1.36124619 15.125 13.3099944 15.578749 15.7299945 15.578749 15.7299945 15.8812496 13.3099944 18.4524991 1.36124619 21.1749995 1.36124619 16.7887502 19.6624937 14.52 19.6624937 10.8900003 6.95749519 10.7387494 5.29374575 10.7387494 5.29374575 10.4362494 6.95749519 6.65500007 19.5112439 4.38624995 19.5112439 -1.83186799e-14 1.20999622 2.72250009 1.20999622"></polygon>
                            <path d="M26.0149984,7.86499812 C26.4687482,7.25999817 27.0737481,6.65499823 27.678748,6.35249796 C28.434998,6.04999828 29.1912476,5.7474986 29.9474979,5.7474986 C31.4599972,5.7474986 32.5187476,6.20124841 33.2749972,7.10874804 C34.0312469,8.01624766 34.484997,9.37749769 34.484997,11.1924969 L34.484997,19.662495 L32.0649974,19.662495 L32.0649974,11.1924969 C32.0649974,10.1337478 31.7624973,9.22624755 31.3087478,8.77249774 C30.8549976,8.1674978 30.098748,8.01624766 29.1912476,8.01624766 C28.434998,8.01624766 27.8299981,8.1674978 27.2249982,8.46999747 C26.6199983,8.77249774 26.1662483,9.22624755 25.8637483,9.67999737 L25.8637483,19.8137445 L23.4437487,19.8137445 L23.4437487,3.05311332e-14 L25.8637483,3.05311332e-14 L25.8637483,7.86499812 L26.0149984,7.86499812 Z" id="Path"></path>
                            <path d="M40.8375005,2.57125001 L38.4175005,2.57125001 L38.4175005,-3.41948692e-14 L40.8375005,-3.41948692e-14 L40.8375005,2.57125001 Z M40.8375005,19.5112494 L38.4175005,19.5112494 L38.4175005,5.89874995 L40.8375005,5.89874995 L40.8375005,19.5112494 Z" id="Shape"></path>
                            <path d="M48.0974991,2.72249413 L48.0974991,6.04999426 L50.6687487,6.04999426 L50.6687487,7.86499441 L48.0974991,7.86499441 L48.0974991,16.1837451 C48.0974991,16.7887449 48.2487489,17.2424953 48.551249,17.5449952 C48.8537491,17.8474951 49.1562487,17.9987455 49.6099986,17.9987455 C49.7612489,17.9987455 49.9124987,17.9987455 50.0637485,17.9987455 C50.2149988,17.9987455 50.3662486,17.8474951 50.5174984,17.8474951 L50.8199985,19.511245 C50.6687487,19.6624955 50.3662486,19.8137449 50.0637485,19.8137449 C49.7612489,19.8137449 49.307499,19.9649954 49.0049989,19.9649954 C47.9462493,19.9649954 47.1899993,19.6624955 46.5849994,19.0574957 C45.9799997,18.4524949 45.6774996,17.5449952 45.6774996,16.1837451 L45.6774996,7.86499441 L43.5600002,7.86499441 L43.5600002,6.04999426 L45.6774996,6.04999426 L45.6774996,2.72249413 L48.0974991,2.72249413 Z" id="Path"></path>
                            <path d="M58.8362486,19.8137498 C56.8699984,19.8137498 55.3574982,19.2087499 54.2987482,17.99875 C53.2399981,16.7887501 52.6349981,15.1249994 52.6349981,13.0074997 L52.6349981,12.4024997 C52.6349981,10.4362495 53.2399981,8.77249967 54.2987482,7.56249959 C55.3574982,6.35249961 56.8699984,5.59624958 58.3824982,5.59624958 C60.1974986,5.59624958 61.5587485,6.20124957 62.4662486,7.25999962 C63.3737488,8.31874972 63.8274985,9.83124956 63.8274985,11.7974998 L63.8274985,13.1587496 L55.2062482,13.1587496 L55.2062482,13.1587496 C55.2062482,14.5199995 55.5087482,15.5787494 56.1137482,16.4862501 C56.7187481,17.39375 57.6262483,17.69625 58.8362486,17.69625 C59.7437481,17.69625 60.3487485,17.545 61.1049987,17.39375 C61.7099984,17.0912501 62.3149987,16.7887501 62.7687485,16.3350002 L63.6762486,17.99875 C63.2224982,18.4524999 62.6174986,18.9062499 61.7099984,19.2087499 C60.8024982,19.5112498 60.0462486,19.8137498 58.8362486,19.8137498 Z M58.5337482,7.71374953 C57.6262483,7.71374953 57.0212483,8.01624958 56.4162482,8.77249963 C55.8112481,9.37749978 55.5087481,10.2849998 55.3574981,11.34375 L55.3574981,11.34375 L61.5587484,11.34375 L61.5587484,11.1924999 C61.5587484,10.1337499 61.2562483,9.37749978 60.8024984,8.77249963 C60.3487484,8.16749959 59.5924983,7.71374953 58.5337482,7.71374953 Z" id="Shape"></path>
                            <path d="M78.3474978,13.31 C78.3474978,15.2762493 77.8937476,16.7887498 76.986248,17.9987501 C76.0787476,19.2087503 74.7174978,19.8137498 73.0537478,19.8137498 C72.1462475,19.8137498 71.3899975,19.6625002 70.6337476,19.2087503 C70.0287477,18.9062499 69.4237475,18.3012492 68.9699975,17.6962497 L68.6674975,19.5112494 L66.7012474,19.5112494 L66.7012474,3.05311332e-14 L69.1212475,3.05311332e-14 L69.1212475,7.56249985 C69.5749975,6.95749975 70.0287477,6.50374981 70.7849976,6.20125006 C71.5412476,5.89874971 72.1462475,5.74750012 73.0537478,5.74750012 C74.7174978,5.74750012 76.0787476,6.35249964 76.986248,7.71375003 C77.8937476,9.07499982 78.3474978,10.73875 78.3474978,13.0074996 L78.3474978,13.31 L78.3474978,13.31 Z M75.9274977,13.0074996 C75.9274977,11.4949997 75.6249975,10.1337499 75.0199977,9.22625001 C74.4149975,8.31875012 73.5074975,7.71375018 72.4487475,7.71375018 C71.6924976,7.71375018 71.0874976,7.86500017 70.4824975,8.31875012 C69.8774975,8.77250012 69.5749975,9.22625001 69.2724975,9.83125006 L69.2724975,15.7299995 C69.5749975,16.3349995 70.0287475,16.9399996 70.4824975,17.2424993 C70.9362475,17.5449996 71.6924976,17.8474994 72.4487475,17.8474994 C73.6587478,17.8474994 74.4149975,17.3937492 75.0199977,16.6374993 C75.6249975,15.8812494 75.9274977,14.6712499 75.9274977,13.3099999 L75.9274977,13.0074996 Z" id="Shape"></path>
                            <path d="M80.7675021,12.7050005 C80.7675021,10.7387503 81.3725021,9.0750005 82.431252,7.71375043 C83.490002,6.35250041 85.002502,5.74750042 86.817502,5.74750042 C88.6325016,5.74750042 90.1450022,6.35250041 91.3550021,7.71375043 C92.4137522,9.0750005 93.0187519,10.7387503 93.0187519,12.7050005 L93.0187519,13.0075005 C93.0187519,14.9737503 92.4137522,16.637501 91.3550021,17.9987508 C90.2962521,19.3600007 88.7837523,19.9650006 86.9687519,19.9650006 C85.1537519,19.9650006 83.6412519,19.3600007 82.582502,17.9987508 C81.5237521,16.637501 80.9187521,15.1250003 80.9187521,13.0075005 L80.9187521,12.7050005 L80.7675021,12.7050005 Z M83.187502,13.0075002 C83.187502,14.5200001 83.490002,15.5787505 84.095002,16.6375002 C84.7000019,17.545 85.607502,17.9987502 86.8175019,17.9987502 C88.0275019,17.9987502 88.9350019,17.545 89.5400017,16.6375002 C90.1450016,15.7300003 90.4475017,14.5200001 90.4475017,13.0075002 L90.4475017,12.7050002 C90.4475017,11.3437504 90.1450016,10.1337504 89.5400017,9.22625042 C88.9350019,8.31875036 88.0275019,7.86500037 86.8175019,7.86500037 C85.607502,7.86500037 84.7000019,8.31875036 84.095002,9.22625042 C83.490002,10.1337504 83.187502,11.3437504 83.187502,12.7050002 L83.187502,13.0075002 Z" id="Shape"></path>
                            <path d="M104.3625,19.5112512 C104.21125,19.0575013 104.21125,18.7550014 104.21125,18.4525014 C104.21125,18.1500015 104.21125,17.8475008 104.06,17.5450008 C103.60625,18.1500015 103.00125,18.7550014 102.245,19.2087513 C101.48875,19.6625011 100.7325,19.8137511 99.8250002,19.8137511 C98.4637502,19.8137511 97.4050003,19.5112512 96.6487503,18.7550014 C95.8925004,17.9987507 95.5900004,17.091251 95.5900004,15.7300013 C95.5900004,14.3687508 96.0437504,13.461251 97.1025003,12.7050012 C98.1612504,11.948751 99.5225004,11.6462511 101.3375,11.6462511 L104.06,11.6462511 L104.06,10.2850014 C104.06,9.52875118 103.7575,8.92375113 103.30375,8.47000124 C102.85,8.01625114 102.09375,7.71375122 101.18625,7.71375122 C100.43,7.71375122 99.6737501,7.86500118 99.2200002,8.31875128 C98.7662503,8.77250116 98.4637502,9.22625126 98.4637502,9.83125111 L96.0437504,9.83125111 L96.0437504,9.83125111 C96.0437504,8.77250116 96.4975003,7.86500118 97.4050003,7.10875127 C98.3125003,6.35250125 99.6737501,5.89875126 101.18625,5.89875126 C102.69875,5.89875126 103.90875,6.35250125 104.9675,7.10875127 C105.875,7.86500118 106.32875,9.0750013 106.32875,10.4362514 L106.32875,16.940001 C106.32875,17.3937509 106.32875,17.8475008 106.32875,18.3012515 C106.32875,18.7550014 106.48,19.2087513 106.63125,19.6625011 L104.3625,19.6625011 L104.3625,19.5112512 Z M100.27875,17.8475007 C101.18625,17.8475007 101.9425,17.5450007 102.69875,17.0912507 C103.455,16.6375009 103.90875,16.0325009 104.06,15.5787509 L104.06,13.3100011 L101.3375,13.3100011 C100.27875,13.3100011 99.5225002,13.6125011 98.9175003,14.066251 C98.3125003,14.520001 98.0100004,15.1250009 98.0100004,15.8812508 C98.0100004,16.4862507 98.1612504,16.9400008 98.6150003,17.2425008 C99.0687503,17.5450007 99.5225002,17.8475007 100.27875,17.8475007 Z" id="Shape"></path>
                            <path d="M116.462493,8.16750112 L115.252494,8.16750112 C114.647494,8.16750112 114.042495,8.31875113 113.588745,8.62125114 C113.134995,8.92375135 112.832495,9.37750137 112.529996,9.98250139 L112.529996,19.6625042 L110.109997,19.6625042 L110.109997,6.05000051 L112.378746,6.05000051 L112.681245,8.01625112 C113.134995,7.26000078 113.588745,6.80625066 114.042495,6.3525006 C114.647494,5.89875046 115.252494,5.74750042 116.008743,5.74750042 C116.159993,5.74750042 116.311243,5.74750042 116.462493,5.74750042 C116.613743,5.74750042 116.764993,5.74750042 116.916243,5.89875046 L116.462493,8.16750112 Z" id="Path"></path>
                            <path d="M118.2775,13.0074996 C118.2775,10.8899996 118.73125,9.07499982 119.63875,7.71375003 C120.546249,6.35249964 121.907499,5.74750012 123.571249,5.74750012 C124.3275,5.74750012 125.083749,5.89874971 125.688749,6.20125006 C126.293749,6.50374981 126.898749,6.95749975 127.201249,7.41124968 L127.201249,3.05311332e-14 L129.621249,3.05311332e-14 L129.621249,19.5112494 L127.654999,19.5112494 L127.352499,17.8474993 C126.898749,18.4525 126.293749,19.0574995 125.688749,19.3599999 C125.083749,19.6625002 124.3275,19.8137498 123.419999,19.8137498 C121.756249,19.8137498 120.395,19.2087503 119.4875,17.9987501 C118.58,16.7887498 118.12625,15.2762493 118.12625,13.31 L118.12625,13.0074996 L118.2775,13.0074996 Z M120.84875,13.3099997 C120.84875,14.6712495 121.15125,15.7299997 121.75625,16.6374994 C122.36125,17.5449997 123.117499,17.8474994 124.3275,17.8474994 C125.08375,17.8474994 125.68875,17.6962495 126.142499,17.3937492 C126.59625,17.0912495 127.049999,16.6374994 127.3525,16.0324994 L127.3525,9.6799997 C127.049999,9.07499971 126.59625,8.62124971 126.142499,8.31874971 C125.68875,8.01624971 125.08375,7.86499971 124.3275,7.86499971 C123.117499,7.86499971 122.21,8.31874971 121.75625,9.3774997 C121.15125,10.2849997 120.84875,11.6462495 120.84875,13.1587492 L120.84875,13.3099997 Z" id="Shape"></path>
                        </g>
                        <g id="icon">
                            <path d="M0,0.660000026 C24.6400001,0.660000026 49.2800002,0.660000026 73.9199982,0.660000026 C73.9199982,5.94000021 73.9199982,11.11 73.9199982,16.3900006 C73.0399971,16.3900006 72.1599961,16.3900006 71.1699999,16.3900006 C71.1699999,12.1000003 71.1699999,7.81000012 71.1699999,3.41000011 C48.2899996,3.41000011 25.6299985,3.41000011 2.86000003,3.41000011 C2.86000003,20.5699995 2.86000003,37.7300021 2.86000003,55.0000001 C15.0699994,55.0000001 27.3899984,55.0000001 39.7099973,55.0000001 C39.7099973,55.9900004 39.7099973,56.8700004 39.7099973,57.8600008 C39.269999,57.8600008 38.9400003,57.8600008 38.5,57.8600008 C26.069999,57.8600008 13.6399994,57.8600008 1.21000004,57.8600008 C0.770000004,57.8600008 0.439999997,57.8600008 0,57.8600008 C0,38.8299995 0,19.6899996 0,0.660000026 Z" id="Path"></path>
                            <path d="M42.9000015,61.3799973 C43.4500015,57.3099985 44.0000015,53.2399973 44.5500015,49.1699986 C44.6600015,48.7299987 44.8800015,48.2899987 45.1000014,47.8499988 C51.2600014,39.4899977 57.4200012,31.129999 63.580001,22.7699991 C64.9000015,20.899999 66.7700006,19.7999991 69.0800008,20.0199991 C74.0300009,20.5699991 76.4500003,25.5199987 73.5900022,29.5899986 C70.0700012,34.6499985 66.3300019,39.4899977 62.5900006,44.4399987 C60.0600019,47.8499988 57.4200012,51.3699982 54.8900016,54.7799983 C54.4500019,55.3299976 53.9000015,55.7699975 53.3500014,56.0999981 C49.9400015,57.8599978 46.5300014,59.6199975 43.0100015,61.3799973 C43.0100015,61.3799973 42.9000015,61.3799973 42.9000015,61.3799973 Z M62.8100009,27.7199993 C57.8600012,34.429999 53.0200016,41.1399986 48.0700016,47.849999 C50.1600016,49.2799996 52.1400014,50.7099988 54.1200015,52.1399994 C59.0700016,45.429999 64.0200015,38.8299993 68.9700012,32.1199993 C66.8800008,30.5799993 64.9000014,29.1499993 62.8100009,27.7199993 Z M63.8000011,26.2899994 C65.8900012,27.8299994 67.8700013,29.2599994 69.9600015,30.6899993 C70.6200013,29.6999992 71.2800011,28.8199991 71.9400014,27.8299994 C73.0400017,26.0699992 72.7100015,24.7499993 71.0600012,23.4299992 C69.4100014,22.1099992 67.6500014,21.9999992 66.2200012,23.3199992 C65.4500012,24.1999992 64.6800012,25.1899991 63.8000011,26.2899994 Z M47.8500015,56.3199997 C49.5000013,55.4399996 51.2600012,54.5599994 53.1300011,53.5699993 C51.0400012,52.0299988 49.0600014,50.7099985 46.9700015,49.1699982 C46.6400015,51.2599987 46.3100016,53.2399992 46.0900016,55.1099995 C46.6400015,55.5499996 47.1900015,55.8799996 47.8500015,56.3199997 Z" id="Shape"></path>
                            <path d="M67.7600012,6.82000017 C67.7600012,10.0100002 67.7600012,13.2000003 67.7600012,16.5000001 C66.8800014,16.5000001 66.0000016,16.5000001 65.1200018,16.5000001 C65.1200018,14.3000002 65.1200018,11.99 65.1200018,9.68000005 C46.6400022,9.68000005 28.2700008,9.68000005 9.79000004,9.68000005 C9.79000004,22.8799995 9.79000004,35.9699986 9.79000004,49.2799991 C19.6899999,49.2799991 29.5900005,49.2799991 39.6000001,49.2799991 C39.6000001,50.2699983 39.6000001,51.1499988 39.6000001,52.0299993 C28.8200006,52.0299993 17.9300003,52.0299993 7.03999996,52.0299993 C7.03999996,36.9600005 7.03999996,21.8900003 7.03999996,6.82000017 C27.170001,6.82000017 47.4100002,6.82000017 67.7600012,6.82000017 Z" id="Path"></path>
                            <path d="M73.9199982,57.75 C69.1899989,57.75 64.4599992,57.75 59.7299995,57.75 C59.7299995,56.87 59.7299995,55.9900001 59.7299995,54.9999995 C63.4699993,54.9999995 67.319999,54.9999995 71.1699988,54.9999995 C71.1699988,49.1700003 71.1699988,43.4499999 71.1699988,37.7299995 C72.1599983,37.7299995 72.9299986,37.7299995 73.9199982,37.7299995 C73.9199982,44.4399999 73.9199982,51.0399996 73.9199982,57.75 Z" id="Path"></path>
                            <path d="M17.0499992,20.2399998 C17.4899993,20.6799997 17.8199993,21.0099997 17.9299994,21.3399997 C20.2399995,25.5199992 25.52,27.0599988 29.7000007,24.6399993 C30.5800003,24.1999995 31.3500013,23.5399995 32.2300009,22.9899996 C33.0000007,22.5499995 33.8800014,21.9999996 34.760001,21.6699996 C36.740001,20.8999997 38.5000025,21.3399997 39.9300023,22.6599996 C40.7000009,23.4299994 41.4700019,24.1999995 42.1300031,25.0799994 C43.7800024,27.279999 45.9800032,28.1599992 48.6200031,28.1599992 C50.8200039,28.1599992 53.0200023,28.0499991 55.220003,27.939999 C55.6600046,27.939999 56.3200057,27.8299989 56.2100036,28.4899989 C56.2100036,28.8199986 55.5500024,29.259999 55.220003,29.259999 C51.9200042,29.3699985 48.6200031,29.3699985 45.320002,29.259999 C43.8900022,29.1499989 42.6800021,28.2699987 41.8000013,27.1699989 C41.2500023,26.5099989 40.7000009,25.7399998 40.1500019,25.0799994 C38.2800006,22.6599996 36.080001,22.3299996 33.5500009,23.9799993 C32.1200011,24.8599992 30.8000011,25.7399998 29.2600004,26.3999994 C25.3000004,28.1599992 21.6699999,27.279999 18.4799995,24.7499994 C16.9399992,23.6499993 16.4999992,22.3299996 17.0499992,20.2399998 Z" id="Path"></path>
                        </g>
                    </g>
                </g>
            </g>
        </g>
    </g>
</svg>